<?xml version="1.0" encoding="utf-8"?>
<!-- Generator: Adobe Illustrator 16.0.0, SVG Export Plug-In . SVG Version: 6.00 Build 0)  -->
<!DOCTYPE svg PUBLIC "-//W3C//DTD SVG 1.1//EN" "http://www.w3.org/Graphics/SVG/1.1/DTD/svg11.dtd">
<svg version="1.1" id="Layer_1" xmlns="http://www.w3.org/2000/svg" xmlns:xlink="http://www.w3.org/1999/xlink" x="0px" y="0px"
	 width="1211px" height="391px" viewBox="0 0 1211 391" enable-background="new 0 0 1211 391" xml:space="preserve">
<g>
	<g>
		<g>
			<path fill-rule="evenodd" clip-rule="evenodd" fill="#30965B" d="M9.992,288.706l44.689-35.358c0,0,4.911-7.042,23.982-3.438
				c19.071,3.6,193.416,30.774,193.416,30.774c34.4,4.511,41.766,8.737,16.859,32.088c-10.477,9.821-51.893,48.127-51.893,48.127
				s-8.35,6.711-22.755,2.293c-14.405-4.42-202.01-56.805-202.01-56.805S-0.648,300.819,9.992,288.706 M69.933,256.294
				c-5.566-1.39-9.003,2.128-9.003,2.128s-27.011,21.773-36.341,30.451c-9.332,8.676,1.636,10.969,1.636,10.969
				s188.094,53.201,195.789,54.512c7.693,1.31,11.297-3.109,11.297-3.109s39.287-36.672,48.455-45.512
				c9.166-8.839-5.893-12.438-5.893-12.438L69.933,256.294z"/>
			<path fill-rule="evenodd" clip-rule="evenodd" fill="#41444B" d="M76.324,63.942l214.453-33.396l-0.328,7.856L68.14,71.799
				C68.14,71.799,71.413,64.269,76.324,63.942"/>
			<path fill-rule="evenodd" clip-rule="evenodd" fill="#30965B" d="M291.021,44.543l-0.33,12.77L88.109,85.878l-14.244,2.782
				c0,0-4.827,1.146-4.747,5.156c0.082,4.011,0,83.081,0,83.081s62.371,12.44,125.56-21.609
				c63.189-34.051,97.238-71.703,107.717-93.638c0,0,1.963-4.912,1.963-14.242c0,0,6.387,19.973,28.16,26.847l3.6,0.982
				c0,0-108.535,148.153-263.727,108.865c0,0-7.694-1.637-17.189-6.057V93.902c0,0-1.965-16.207,22.755-18.663
				C102.676,72.786,291.021,44.543,291.021,44.543"/>
			<path fill-rule="evenodd" clip-rule="evenodd" fill="#1D3A8F" d="M56.182,202.927c0,0,57.624,33.067,135.219,17.68
				c77.596-15.386,124.088-45.835,137.84-64.498l21.279,25.538c0,0-61.225,60.242-172.543,62.534l83.162,14.406l30.775,5.892
				c0,0,21.938,7.203,22.266-10.803c0.328-18.009,0-33.396,0-33.396l9.822-3.93v39.945c0,0,0.654,20.626-19.646,22.919L81.393,243.2
				C81.393,243.2,47.668,241.89,56.182,202.927"/>
			<path fill-rule="evenodd" clip-rule="evenodd" fill="#41444B" d="M330.035,209.15l5.73-3.109l0.326,39.779
				c0,0,0.305,4.58-5.895,7.528L330.035,209.15z"/>
			<path fill-rule="evenodd" clip-rule="evenodd" fill="#1D3A8F" d="M59.354,328.064l163.126,47.242c0,0,9.496,3.6,19.973-8.186
				s63.189-59.587,63.189-59.587s2.781-4.094,2.127-7.857c0,0,7.859,6.057,5.24,11.623c-2.621,5.565-65.318,62.532-65.318,62.532
				s-9.25,13.34-26.93,8.35c-17.682-4.994-195.461-56.967-195.461-56.967s-12.361-2.783-15.145-10.642L59.354,328.064z"/>
			<path fill-rule="evenodd" clip-rule="evenodd" fill="#30965B" d="M337.646,7.701c9.359,0,17.83,3.793,23.963,9.925
				c6.131,6.133,9.924,14.604,9.924,23.962c0,9.358-3.793,17.828-9.924,23.961c-6.133,6.133-14.604,9.925-23.963,9.925
				c-9.357,0-17.826-3.792-23.961-9.925c-6.133-6.133-9.924-14.603-9.924-23.961c0-9.357,3.791-17.829,9.924-23.962
				C319.82,11.494,328.289,7.701,337.646,7.701 M356.053,23.181c-4.711-4.71-11.217-7.621-18.406-7.621
				c-7.188,0-13.693,2.911-18.404,7.621c-4.711,4.711-7.623,11.218-7.623,18.406s2.912,13.694,7.623,18.406
				c4.711,4.71,11.217,7.622,18.404,7.622c7.189,0,13.695-2.912,18.406-7.622c4.711-4.712,7.623-11.218,7.623-18.406
				S360.764,27.892,356.053,23.181"/>
			<path fill-rule="evenodd" clip-rule="evenodd" fill="#1D3A8F" d="M361.703,115.842c9.357,0,17.828,3.793,23.961,9.924
				c6.133,6.134,9.924,14.604,9.924,23.962c0,9.356-3.791,17.83-9.924,23.961c-6.133,6.132-14.604,9.926-23.961,9.926
				c-9.355,0-17.828-3.794-23.961-9.926c-6.133-6.131-9.924-14.604-9.924-23.961c0-9.357,3.791-17.828,9.924-23.962
				C343.875,119.635,352.348,115.842,361.703,115.842 M380.109,131.323c-4.709-4.71-11.219-7.622-18.406-7.622
				c-7.186,0-13.695,2.912-18.404,7.622c-4.711,4.71-7.625,11.217-7.625,18.405c0,7.188,2.914,13.695,7.625,18.406
				c4.709,4.709,11.219,7.623,18.404,7.623c7.188,0,13.697-2.914,18.406-7.623c4.709-4.711,7.623-11.219,7.623-18.406
				C387.732,142.54,384.818,136.033,380.109,131.323"/>
		</g>
		<g>
			<g>
				<g>
					<path fill="#30965B" d="M522.986,96.206h24.365v59.432h-20.086v-6.914c-8.231,6.091-18.768,8.89-30.95,8.89
						c-31.445,0-58.445-20.743-58.445-58.609c0-35.725,26.671-60.583,63.385-60.583c20.248,0,37.041,6.914,48.236,19.92
						l-17.122,15.805c-8.396-8.889-18.109-13.007-29.798-13.007c-22.39,0-37.701,14.981-37.701,37.701
						c0,24.365,16.3,36.548,34.574,36.548c8.725,0,16.956-2.471,23.542-7.901V96.206z"/>
					<path fill="#30965B" d="M625.22,65.75v23.707c-2.141-0.165-3.787-0.332-5.762-0.332c-14.157,0-23.542,7.739-23.542,24.696
						v41.816h-25.682V67.066h24.529v11.688C601.02,70.192,611.556,65.75,625.22,65.75"/>
					<path fill="#30965B" d="M658.312,108.717L658.312,108.717l43.132-8.395c-2.466-9.056-10.204-15.147-20.908-15.147
						C667.698,85.175,658.807,93.736,658.312,108.717 M706.549,127.815l13.664,14.815c-8.229,9.387-20.577,14.323-36.547,14.323
						c-30.623,0-50.542-19.262-50.542-45.603c0-26.503,20.088-45.602,47.411-45.602c25.027,0,45.604,16.464,45.772,44.778
						l-65.526,12.677c3.787,8.727,12.021,13.172,23.542,13.172C693.709,136.377,700.46,133.576,706.549,127.815z"/>
					<path fill="#30965B" d="M762.192,108.717L762.192,108.717l43.136-8.395c-2.47-9.056-10.208-15.147-20.911-15.147
						C771.578,85.175,762.687,93.736,762.192,108.717 M810.43,127.815l13.664,14.815c-8.229,9.387-20.577,14.323-36.548,14.323
						c-30.621,0-50.539-19.262-50.539-45.603c0-26.503,20.085-45.602,47.41-45.602c25.027,0,45.604,16.464,45.767,44.778
						l-65.521,12.677c3.786,8.727,12.016,13.172,23.542,13.172C797.59,136.377,804.34,133.576,810.43,127.815z"/>
					<path fill="#30965B" d="M938.02,104.932v50.706h-25.686v-46.756c0-14.321-6.584-20.907-17.942-20.907
						c-12.348,0-21.238,7.572-21.238,23.871v43.792h-25.681V67.066h24.531v10.371c6.911-7.571,17.284-11.688,29.301-11.688
						C922.212,65.75,938.02,77.932,938.02,104.932"/>
				</g>
				<polygon fill="#1D3A8F" points="543.563,186.554 543.563,301.794 516.893,301.794 516.893,254.544 464.541,254.544 
					464.541,301.794 437.87,301.794 437.87,186.554 464.541,186.554 464.541,231.991 516.893,231.991 516.893,186.554 				"/>
				<path fill="#1D3A8F" d="M569.082,213.223L569.082,213.223h25.682v88.571h-25.682V213.223z M565.954,186.554
					c0-8.067,6.42-14.324,15.969-14.324c9.55,0,15.97,5.927,15.97,13.829c0,8.56-6.42,14.817-15.97,14.817
					C572.374,200.876,565.954,194.618,565.954,186.554z"/>
				<path fill="#1D3A8F" d="M684.65,254.708L684.65,254.708c0-13.003-9.714-21.729-23.214-21.729s-23.377,8.727-23.377,21.729
					c0,13.007,9.877,21.732,23.377,21.732S684.65,267.715,684.65,254.708 M710.005,213.223v73.754
					c0,32.929-17.779,48.073-49.722,48.073c-16.79,0-33.09-4.116-43.459-12.184l10.206-18.438c7.571,6.089,19.92,10.04,31.278,10.04
					c18.109,0,26.012-8.231,26.012-24.199v-3.788c-6.75,7.412-16.462,11.032-27.986,11.032c-24.528,0-44.286-16.956-44.286-42.806
					c0-25.846,19.758-42.802,44.286-42.802c12.346,0,22.553,4.115,29.304,12.678v-11.361H710.005z"/>
				<path fill="#1D3A8F" d="M824.421,251.088v50.706H798.74v-46.758c0-14.316-6.585-20.905-17.946-20.905
					c-12.348,0-21.235,7.574-21.235,23.873v43.79h-25.685V179.638h25.685v42.805c6.911-6.915,16.789-10.536,28.15-10.536
					C808.618,211.906,824.421,224.087,824.421,251.088"/>
				<path fill="#1D3A8F" d="M900.974,297.514c-5.269,3.788-13.007,5.597-20.745,5.597c-21.072,0-33.087-10.701-33.087-31.773
					v-77.705h25.681v21.566h21.894v19.754h-21.894v36.057c0,7.572,3.95,11.688,10.866,11.688c3.783,0,7.57-1.152,10.536-3.293
					L900.974,297.514z"/>
				<path fill="#1D3A8F" d="M931.265,254.876L931.265,254.876l43.132-8.396c-2.47-9.058-10.205-15.146-20.908-15.146
					C940.647,231.333,931.758,239.892,931.265,254.876 M979.5,273.971l13.666,14.818c-8.233,9.384-20.582,14.321-36.549,14.321
					c-30.622,0-50.543-19.261-50.543-45.602c0-26.505,20.086-45.603,47.414-45.603c25.026,0,45.603,16.463,45.768,44.777
					l-65.521,12.68c3.788,8.725,12.017,13.17,23.541,13.17C966.658,282.533,973.411,279.732,979.5,273.971z"/>
				<path fill="#1D3A8F" d="M1009.96,257.509c0-26.669,20.576-45.603,49.384-45.603c18.606,0,33.257,8.068,39.678,22.554
					l-19.919,10.701c-4.775-8.395-11.856-12.183-19.92-12.183c-13.007,0-23.212,9.058-23.212,24.53
					c0,15.475,10.205,24.531,23.212,24.531c8.063,0,15.145-3.624,19.92-12.184l19.919,10.864
					c-6.421,14.16-21.071,22.39-39.678,22.39C1030.536,303.11,1009.96,284.178,1009.96,257.509"/>
				<path fill="#1D3A8F" d="M1203.725,251.088v50.706h-25.681v-46.758c0-14.316-6.585-20.905-17.945-20.905
					c-12.346,0-21.235,7.574-21.235,23.873v43.79h-25.687V179.638h25.687v42.805c6.91-6.915,16.788-10.536,28.151-10.536
					C1187.922,211.906,1203.725,224.087,1203.725,251.088"/>
			</g>
			<g>
				<polygon fill="#41444B" points="743.886,317.973 733.736,317.973 733.736,313.158 759.723,313.158 759.723,317.973 
					749.572,317.973 749.572,343.781 743.886,343.781 				"/>
				<path fill="#41444B" d="M787.152,330.395v13.387h-5.467v-12.684c0-4.155-2.057-6.17-5.555-6.17c-3.896,0-6.52,2.363-6.52,7.044
					v11.81h-5.469v-32.458h5.469v11.811c1.793-1.927,4.548-2.977,7.784-2.977C782.999,320.157,787.152,323.352,787.152,330.395"/>
				<path fill="#41444B" d="M798.264,330.221L798.264,330.221h13.257c-0.437-3.369-3.02-5.689-6.606-5.689
					C801.371,324.531,798.791,326.811,798.264,330.221 M816.64,333.854h-18.333c0.66,3.411,3.5,5.601,7.571,5.601
					c2.623,0,4.679-0.833,6.341-2.538l2.934,3.369c-2.1,2.493-5.381,3.804-9.406,3.804c-7.831,0-12.907-5.027-12.907-11.987
					c0-6.956,5.119-11.944,12.075-11.944c6.825,0,11.813,4.771,11.813,12.077C816.727,332.67,816.684,333.329,816.64,333.854z"/>
				<path fill="#41444B" d="M856.801,328.121h5.38v12.204c-3.191,2.585-7.654,3.897-11.988,3.897c-9.491,0-16.49-6.607-16.49-15.75
					c0-9.146,6.999-15.75,16.578-15.75c5.12,0,9.408,1.704,12.296,4.987l-3.587,3.497c-2.408-2.404-5.164-3.497-8.443-3.497
					c-6.52,0-11.113,4.417-11.113,10.763c0,6.211,4.594,10.76,11.067,10.76c2.188,0,4.332-0.434,6.301-1.572V328.121z"/>
				<path fill="#41444B" d="M883.311,320.157v5.208c-0.481-0.086-0.873-0.134-1.267-0.134c-4.158,0-6.781,2.454-6.781,7.221v11.329
					h-5.47V320.42h5.205v3.415C876.572,321.382,879.418,320.157,883.311,320.157"/>
				<path fill="#41444B" d="M906.28,332.102L906.28,332.102c0-4.464-2.976-7.305-6.954-7.305c-3.941,0-6.913,2.841-6.913,7.305
					c0,4.465,2.972,7.307,6.913,7.307C903.305,339.408,906.28,336.566,906.28,332.102 M886.897,332.102
					c0-6.998,5.249-11.944,12.429-11.944c7.262,0,12.467,4.946,12.467,11.944c0,7-5.205,11.987-12.467,11.987
					C892.146,344.089,886.897,339.102,886.897,332.102z"/>
				<polygon fill="#41444B" points="954.144,320.42 945.521,343.781 940.271,343.781 934.236,327.686 928.109,343.781 
					922.86,343.781 914.285,320.42 919.447,320.42 925.618,337.66 932.049,320.42 936.64,320.42 942.942,337.747 949.286,320.42 
									"/>
				<path fill="#41444B" d="M958.56,320.42L958.56,320.42h5.469v23.361h-5.469V320.42z M957.814,313.289
					c0-1.835,1.487-3.28,3.5-3.28s3.5,1.354,3.5,3.149c0,1.927-1.444,3.413-3.5,3.413
					C959.302,316.571,957.814,315.126,957.814,313.289z"/>
				<path fill="#41444B" d="M994.871,330.395v13.387h-5.472v-12.684c0-4.155-2.054-6.17-5.555-6.17c-3.893,0-6.52,2.363-6.52,7.044
					v11.81h-5.468V320.42h5.205v3.019c1.794-2.142,4.639-3.281,8.051-3.281C990.713,320.157,994.871,323.352,994.871,330.395"/>
				<path fill="#41444B" d="M1020.286,331.404L1020.286,331.404c0-3.938-2.973-6.607-7.086-6.607c-4.154,0-7.13,2.67-7.13,6.607
					c0,3.979,2.976,6.693,7.13,6.693C1017.313,338.098,1020.286,335.384,1020.286,331.404 M1025.672,320.42v19.82
					c0,8.486-4.422,12.339-12.603,12.339c-4.376,0-8.706-1.139-11.377-3.324l2.453-4.115c2.056,1.708,5.38,2.801,8.618,2.801
					c5.162,0,7.436-2.361,7.436-7.087v-1.228c-1.925,2.103-4.679,3.106-7.829,3.106c-6.693,0-11.813-4.551-11.813-11.328
					c0-6.782,5.12-11.247,11.813-11.247c3.281,0,6.172,1.05,8.092,3.37v-3.107H1025.672z"/>
				<polygon fill="#41444B" points="1069.725,339.015 1069.725,343.781 1046.753,343.781 1046.753,313.158 1069.113,313.158 
					1069.113,317.926 1052.442,317.926 1052.442,325.89 1067.229,325.89 1067.229,330.573 1052.442,330.573 1052.442,339.015 				
					"/>
				<path fill="#41444B" d="M1099.212,330.395v13.387h-5.47v-12.684c0-4.155-2.059-6.17-5.556-6.17
					c-3.896,0-6.519,2.363-6.519,7.044v11.81h-5.472V320.42h5.206v3.019c1.794-2.142,4.64-3.281,8.051-3.281
					C1095.057,320.157,1099.212,323.352,1099.212,330.395"/>
				<path fill="#41444B" d="M1124.63,331.404L1124.63,331.404c0-3.938-2.977-6.607-7.09-6.607c-4.154,0-7.131,2.67-7.131,6.607
					c0,3.979,2.977,6.693,7.131,6.693C1121.653,338.098,1124.63,335.384,1124.63,331.404 M1130.013,320.42v19.82
					c0,8.486-4.422,12.339-12.604,12.339c-4.373,0-8.705-1.139-11.372-3.324l2.448-4.115c2.057,1.708,5.381,2.801,8.619,2.801
					c5.162,0,7.436-2.361,7.436-7.087v-1.228c-1.925,2.103-4.679,3.106-7.829,3.106c-6.693,0-11.813-4.551-11.813-11.328
					c0-6.782,5.119-11.247,11.813-11.247c3.281,0,6.17,1.05,8.095,3.37v-3.107H1130.013z"/>
				<path fill="#41444B" d="M1137.841,320.42L1137.841,320.42h5.467v23.361h-5.467V320.42z M1137.098,313.289
					c0-1.835,1.485-3.28,3.5-3.28c2.012,0,3.5,1.354,3.5,3.149c0,1.927-1.444,3.413-3.5,3.413
					C1138.583,316.571,1137.098,315.126,1137.098,313.289z"/>
				<path fill="#41444B" d="M1174.152,330.395v13.387h-5.468v-12.684c0-4.155-2.056-6.17-5.557-6.17
					c-3.896,0-6.519,2.363-6.519,7.044v11.81h-5.472V320.42h5.208v3.019c1.795-2.142,4.636-3.281,8.049-3.281
					C1169.996,320.157,1174.152,323.352,1174.152,330.395"/>
				<path fill="#41444B" d="M1185.263,330.221L1185.263,330.221h13.257c-0.437-3.369-3.02-5.689-6.607-5.689
					C1188.368,324.531,1185.79,326.811,1185.263,330.221 M1203.638,333.854h-18.331c0.657,3.411,3.499,5.601,7.57,5.601
					c2.623,0,4.679-0.833,6.345-2.538l2.928,3.369c-2.1,2.493-5.381,3.804-9.403,3.804c-7.834,0-12.908-5.027-12.908-11.987
					c0-6.956,5.118-11.944,12.074-11.944c6.825,0,11.813,4.771,11.813,12.077C1203.725,332.67,1203.682,333.329,1203.638,333.854z"
					/>
			</g>
			<g>
				<g>
					<path fill="#41444B" d="M1184.273,175.104l-3.852-5.723h-0.227h-4.025v5.723h-4.625v-20.539h8.65
						c5.334,0,8.672,2.848,8.672,7.453c0,3.078-1.512,5.34-4.109,6.482l4.48,6.604H1184.273z M1179.938,158.438h-3.768v7.158h3.768
						c2.824,0,4.25-1.348,4.25-3.578C1184.188,159.756,1182.762,158.438,1179.938,158.438z"/>
				</g>
				<path fill-rule="evenodd" clip-rule="evenodd" fill="#41444B" d="M1178.656,139.367c-5.33,0.408-9.531,2.248-13.488,5.291
					l-1.668,1.441c-1.721,1.871-2.576,2.525-4.201,5.24c-0.77,1.289-1.486,2.66-2.08,4.258c-3.07,8.242-1.797,17.975,3.506,24.824
					c0.926,1.203,1.127,1.453,2.168,2.51c5.045,5.117,11.869,7.904,19.197,7.369c5.182-0.381,10.697-2.643,14.316-5.996l1.594-1.52
					c7.404-7.701,9.496-19.84,4.436-29.643c-1.641-3.178-3.025-4.836-5.412-7.229c-0.254-0.256-0.549-0.51-0.824-0.736
					c-2.186-1.771-4.109-3.086-6.861-4.158C1186.15,139.777,1182.471,139.076,1178.656,139.367 M1179.162,142.592
					c3.311-0.193,6.459,0.41,9.223,1.545c3.424,1.406,5.598,3.158,8.025,5.725c1.146,1.215,2.49,3.33,3.283,4.916
					c3.465,6.934,3.033,15.471-1.033,21.975c-2.129,3.412-4.932,6.055-8.48,7.939c-2.418,1.281-5.387,2.189-8.512,2.375
					c-12.363,0.736-22.236-9.074-22.922-20.887C1158.014,153.447,1167.588,143.27,1179.162,142.592"/>
			</g>
		</g>
	</g>
</g>
</svg>
